<?xml version="1.0" standalone="no"?>
<!DOCTYPE svg PUBLIC "-//W3C//DTD SVG 20010904//EN"
 "http://www.w3.org/TR/2001/REC-SVG-20010904/DTD/svg10.dtd">
<svg version="1.0" xmlns="http://www.w3.org/2000/svg"
 width="437.000000pt" height="437.000000pt" viewBox="0 0 437.000000 437.000000"
 preserveAspectRatio="xMidYMid meet">
<metadata>
Created by potrace 1.11, written by Peter Selinger 2001-2013
</metadata>
<g transform="translate(0.000000,437.000000) scale(0.100000,-0.100000)"
fill="#000000" stroke="none">
<path d="M1582 4272 c-7 -5 -48 -8 -92 -8 -44 1 -80 -1 -80 -4 0 -3 -39 -6
-88 -7 -48 -1 -121 -5 -162 -8 -41 -4 -85 -6 -98 -6 -13 1 -33 -4 -44 -10 -15
-8 -19 -8 -14 0 8 12 -6 15 -18 4 -3 -4 -28 -8 -54 -10 -57 -4 -117 -11 -117
-13 0 -2 -8 -3 -90 -13 -22 -3 -47 -7 -55 -9 -113 -35 -160 -53 -160 -60 0 -4
-7 -8 -15 -8 -12 0 -115 -96 -153 -144 -31 -38 -101 -186 -120 -251 -30 -104
-42 -171 -57 -326 -3 -35 -8 -75 -10 -89 -2 -14 -7 -72 -10 -130 -4 -58 -9
-123 -10 -145 -20 -245 -27 -1131 -12 -1455 15 -320 35 -589 52 -700 2 -14 7
-45 10 -70 18 -135 73 -288 139 -385 43 -64 143 -165 164 -165 6 0 12 -4 12
-9 0 -5 17 -15 38 -22 20 -6 42 -14 47 -18 6 -3 21 -7 35 -9 13 -2 27 -6 30
-10 3 -4 14 -7 25 -8 11 -1 36 -4 55 -8 19 -4 51 -9 70 -12 74 -9 89 -12 99
-19 6 -3 11 -1 11 5 0 6 4 8 10 5 13 -8 70 -15 156 -19 40 -2 76 -6 80 -8 9
-5 100 -10 202 -12 28 -1 52 -3 52 -6 0 -3 44 -5 98 -5 53 1 103 -3 110 -8 8
-6 12 -5 12 4 0 9 3 10 8 4 8 -12 62 -14 62 -3 0 4 10 4 23 -1 28 -11 1018 -9
1035 2 7 5 12 3 12 -4 0 -8 4 -8 15 1 12 10 15 10 15 -1 0 -9 3 -10 8 -3 4 5
37 9 75 9 37 -1 67 2 67 8 0 5 6 5 13 -2 10 -8 17 -7 26 2 11 9 14 9 18 -1 3
-6 10 -9 16 -5 7 4 39 9 72 10 106 4 126 6 131 15 3 4 11 5 17 1 15 -9 57 -12
57 -4 0 3 26 6 58 6 31 0 62 2 67 5 6 2 21 5 35 6 69 5 155 16 169 22 9 4 32
7 51 7 19 0 37 3 40 7 3 3 21 9 40 12 39 8 42 8 88 26 17 6 32 17 32 23 0 6 3
7 7 4 11 -12 102 66 158 135 71 87 138 254 160 398 4 25 8 56 10 70 8 49 25
206 32 300 11 131 10 1973 -1 2090 -13 147 -14 152 -20 205 -31 249 -78 390
-170 519 -40 55 -136 152 -136 137 0 -3 -4 -1 -8 4 -16 22 -89 55 -129 57 -7
1 -13 6 -13 11 0 5 -7 7 -15 3 -8 -3 -15 -2 -15 3 0 4 -11 6 -25 3 -14 -2 -25
0 -25 5 0 5 -10 9 -22 10 -29 1 -103 11 -103 13 0 3 -54 8 -117 12 -32 2 -58
5 -58 8 0 3 -17 6 -37 6 -32 1 -110 7 -233 17 -14 2 -33 -1 -42 -5 -9 -5 -19
-4 -22 1 -5 8 -25 10 -197 15 -47 2 -91 6 -97 10 -6 3 -13 2 -17 -4 -4 -6 -11
-8 -16 -4 -19 11 -184 12 -191 0 -5 -8 -8 -7 -8 2 0 18 -657 17 -679 -1 -12
-9 -13 -9 -7 1 5 8 0 12 -14 12 -13 0 -19 -4 -14 -12 5 -7 3 -8 -7 -3 -20 13
-69 13 -69 1 0 -7 -3 -8 -8 -1 -8 12 -32 13 -49 2 -8 -5 -13 -3 -13 3 0 6 -8
9 -17 6 -10 -2 -29 -8 -42 -11 -16 -5 -21 -4 -17 4 8 13 6 14 -12 3z"/>
</g>
</svg>
